<?xml version="1.0" encoding="UTF-8" standalone="no"?>
<!-- Created with Inkscape (http://www.inkscape.org/) -->

<svg
   xmlns:dc="http://purl.org/dc/elements/1.1/"
   xmlns:cc="http://creativecommons.org/ns#"
   xmlns:rdf="http://www.w3.org/1999/02/22-rdf-syntax-ns#"
   xmlns:svg="http://www.w3.org/2000/svg"
   xmlns="http://www.w3.org/2000/svg"
   xmlns:xlink="http://www.w3.org/1999/xlink"
   xmlns:sodipodi="http://sodipodi.sourceforge.net/DTD/sodipodi-0.dtd"
   xmlns:inkscape="http://www.inkscape.org/namespaces/inkscape"
   id="svg2"
   sodipodi:docname="vinyl.svg"
   inkscape:export-filename="D:\Graphics related\Casablanca\baner\ost.png"
   viewBox="0 0 762.64 700"
   inkscape:export-xdpi="44.450001"
   version="1.1"
   inkscape:export-ydpi="44.450001"
   inkscape:version="0.48.0 r9654"
   width="762.64001"
   height="762.64001">
  <defs
     id="defs4">
    <ellipse
       id="path4351"
       style="fill:#222f5e"
       transform="matrix(-0.16038,-0.17816,0.1727,-0.15546,893.59,878.92)"
       cx="714.10712"
       cy="370.40009"
       rx="365.24509"
       ry="376.80957" />
    <filter
       id="filter4177-4"
       inkscape:menu="Blurs"
       inkscape:menu-tooltip="Blur as if the object flies vertically; adjust Standard Deviation to vary force"
       inkscape:label="Motion blur, vertical"
       color-interpolation-filters="sRGB">
      <feGaussianBlur
         id="feGaussianBlur4179-8"
         result="fbSourceGraphic"
         stdDeviation="5 0.01"
         in="SourceGraphic" />
      <feColorMatrix
         id="feColorMatrix4181-8"
         values="0 0 0 -1 0 0 0 0 -1 0 0 0 0 -1 0 0 0 0 1 0"
         result="fbSourceGraphicAlpha"
         in="fbSourceGraphic" />
      <feGaussianBlur
         id="feGaussianBlur4183-2"
         result="fbSourceGraphic"
         stdDeviation="0.01 5"
         in="fbSourceGraphic" />
      <feColorMatrix
         id="feColorMatrix4185-4"
         values="0 0 0 -1 0 0 0 0 -1 0 0 0 0 -1 0 0 0 0 1 0"
         result="fbSourceGraphicAlpha"
         in="fbSourceGraphic" />
      <feGaussianBlur
         id="feGaussianBlur4187-5"
         result="fbSourceGraphic"
         stdDeviation="5 0.01"
         in="fbSourceGraphic" />
      <feColorMatrix
         id="feColorMatrix4189-5"
         values="0 0 0 -1 0 0 0 0 -1 0 0 0 0 -1 0 0 0 0 1 0"
         result="fbSourceGraphicAlpha"
         in="fbSourceGraphic" />
      <feGaussianBlur
         id="feGaussianBlur4191-1"
         result="fbSourceGraphic"
         stdDeviation="0.01 5"
         in="fbSourceGraphic" />
      <feColorMatrix
         id="feColorMatrix4193-7"
         values="0 0 0 -1 0 0 0 0 -1 0 0 0 0 -1 0 0 0 0 1 0"
         result="fbSourceGraphicAlpha"
         in="fbSourceGraphic" />
      <feGaussianBlur
         id="feGaussianBlur4195-1"
         result="fbSourceGraphic"
         stdDeviation="5 0.01"
         in="fbSourceGraphic" />
      <feColorMatrix
         id="feColorMatrix4197-1"
         values="0 0 0 -1 0 0 0 0 -1 0 0 0 0 -1 0 0 0 0 1 0"
         result="fbSourceGraphicAlpha"
         in="fbSourceGraphic" />
      <feGaussianBlur
         id="feGaussianBlur4199-5"
         stdDeviation="0.01 5"
         in="fbSourceGraphic" />
    </filter>
  </defs>
  <sodipodi:namedview
     id="base"
     fit-margin-left="0"
     inkscape:zoom="0.42727273"
     borderopacity="1.0"
     inkscape:current-layer="layer1"
     inkscape:cx="358.76064"
     inkscape:cy="316"
     inkscape:window-maximized="0"
     showgrid="false"
     fit-margin-right="0"
     inkscape:guide-bbox="true"
     units="mm"
     showguides="true"
     bordercolor="#666666"
     inkscape:window-x="1"
     inkscape:window-y="43"
     fit-margin-bottom="0"
     inkscape:window-width="833"
     inkscape:pageopacity="0.0"
     inkscape:pageshadow="2"
     pagecolor="#ffffff"
     inkscape:document-units="px"
     inkscape:window-height="564"
     fit-margin-top="0"
     inkscape:document-rotation="0"
     lock-margins="false" />
  <g
     id="layer1"
     inkscape:label="Layer 1"
     inkscape:groupmode="layer"
     transform="translate(-462.62,-348.03)">
    <g
       id="text3493"
       style="fill:#000000;fill-opacity:0.98824"
       transform="matrix(1,0,0,-1,-2,6)">
      <path
         id="path3915"
         sodipodi:nodetypes="cccsccccsscccccccscccccssccc"
         inkscape:connector-curvature="0"
         style="fill:#000000;fill-opacity:0.98824"
         d="m 992.92,-875.74 -1.2497,2.7512 c -0.0651,0.0651 -0.11445,0.13122 -0.14801,0.19836 -0.0336,0.0671 -0.0504,0.13428 -0.0504,0.20142 0,0.13224 0.0498,0.23193 0.14954,0.29907 0.0997,0.0671 0.21667,0.13427 0.35095,0.20142 0.0651,-10e-6 0.11444,0.0163 0.14801,0.0488 0.0336,0.0326 0.0839,0.0488 0.15106,0.0488 h 0.0504 0.14801 c 0.13427,0 0.2182,-0.0498 0.25177,-0.14953 0.0336,-0.0997 0.0829,-0.21566 0.14801,-0.3479 l 0.90027,-1.8501 0.45013,-0.92507 4.2023,1.4233 -1.7502,3.7506 c -0.40081,0.79955 -0.90129,1.383 -1.5015,1.7502 -0.60018,0.36722 -1.2665,0.55084 -1.9989,0.55084 -0.13428,0 -0.26805,-0.0168 -0.4013,-0.0503 -0.13327,-0.0336 -0.26602,-0.0504 -0.39826,-0.0504 -0.13428,-0.0671 -0.26805,-0.11749 -0.4013,-0.15106 -0.13327,-0.0336 -0.26602,-0.0829 -0.39826,-0.14801 -0.66732,-0.26856 -1.2009,-0.70242 -1.6006,-1.3016 -0.39978,-0.59917 -0.59967,-1.2996 -0.59967,-2.1011 0,-0.26652 0.0331,-0.54983 0.0992,-0.84991 0.0661,-0.30009 0.16632,-0.61595 0.30059,-0.94757 l 1.3977,-2.8015 z" />
      <path
         id="path3917"
         d="m 992.92,-875.74 -1.2497,2.7512 c -0.0651,0.0651 -0.11445,0.13122 -0.14801,0.19836 -0.0336,0.0671 -0.0504,0.13428 -0.0504,0.20142 0,0.13224 0.0498,0.23193 0.14954,0.29907 0.0997,0.0671 0.21667,0.13427 0.35095,0.20142 0.0651,-10e-6 0.11444,0.0163 0.14801,0.0488 0.0336,0.0326 0.0839,0.0488 0.15106,0.0488 h 0.0504 0.14801 c 0.13427,0 0.2182,-0.0498 0.25177,-0.14953 0.0336,-0.0997 0.0829,-0.21566 0.14801,-0.3479 l 0.90027,-1.8501 0.45013,-0.92507 4.2023,1.4233 -1.7502,3.7506 c -0.40081,0.79955 -0.90129,1.383 -1.5015,1.7502 -0.60018,0.36722 -1.2665,0.55084 -1.9989,0.55084 -0.13428,0 -0.26805,-0.0168 -0.4013,-0.0503 -0.13327,-0.0336 -0.26602,-0.0504 -0.39826,-0.0504 -0.13428,-0.0671 -0.26805,-0.11749 -0.4013,-0.15106 -0.13327,-0.0336 -0.26602,-0.0829 -0.39826,-0.14801 -0.66732,-0.26856 -1.2009,-0.70242 -1.6006,-1.3016 -0.39978,-0.59917 -0.59967,-1.2996 -0.59967,-2.1011 0,-0.26652 0.0331,-0.54983 0.0992,-0.84991 0.0661,-0.30009 0.16632,-0.61595 0.30059,-0.94757 l 1.3977,-2.8015 z"
         sodipodi:nodetypes="cccsccccsscccccccscccccssccc"
         style="fill:#000000;fill-opacity:0.98824"
         inkscape:connector-curvature="0" />
    </g>
    <g
       id="g3919"
       style="fill:#000000;fill-opacity:0.98824"
       transform="matrix(0.63011,-0.77651,0.77651,0.63011,1044.9,2203.7)">
      <path
         id="path3921"
         d="m 992.92,-875.74 -1.2497,2.7512 c -0.0651,0.0651 -0.11445,0.13122 -0.14801,0.19836 -0.0336,0.0671 -0.0504,0.13428 -0.0504,0.20142 0,0.13224 0.0498,0.23193 0.14954,0.29907 0.0997,0.0671 0.21667,0.13427 0.35095,0.20142 0.0651,-10e-6 0.11444,0.0163 0.14801,0.0488 0.0336,0.0326 0.0839,0.0488 0.15106,0.0488 h 0.0504 0.14801 c 0.13427,0 0.2182,-0.0498 0.25177,-0.14953 0.0336,-0.0997 0.0829,-0.21566 0.14801,-0.3479 l 0.90027,-1.8501 0.45013,-0.92507 4.2023,1.4233 -1.7502,3.7506 c -0.40081,0.79955 -0.90129,1.383 -1.5015,1.7502 -0.60018,0.36722 -1.2665,0.55084 -1.9989,0.55084 -0.13428,0 -0.26805,-0.0168 -0.4013,-0.0503 -0.13327,-0.0336 -0.26602,-0.0504 -0.39826,-0.0504 -0.13428,-0.0671 -0.26805,-0.11749 -0.4013,-0.15106 -0.13327,-0.0336 -0.26602,-0.0829 -0.39826,-0.14801 -0.66732,-0.26856 -1.2009,-0.70242 -1.6006,-1.3016 -0.39978,-0.59917 -0.59967,-1.2996 -0.59967,-2.1011 0,-0.26652 0.0331,-0.54983 0.0992,-0.84991 0.0661,-0.30009 0.16632,-0.61595 0.30059,-0.94757 l 1.3977,-2.8015 z"
         sodipodi:nodetypes="cccsccccsscccccccscccccssccc"
         style="fill:#000000;fill-opacity:0.98824"
         inkscape:connector-curvature="0" />
      <path
         id="path3923"
         sodipodi:nodetypes="cccsccccsscccccccscccccssccc"
         inkscape:connector-curvature="0"
         style="fill:#000000;fill-opacity:0.98824"
         d="m 992.92,-875.74 -1.2497,2.7512 c -0.0651,0.0651 -0.11445,0.13122 -0.14801,0.19836 -0.0336,0.0671 -0.0504,0.13428 -0.0504,0.20142 0,0.13224 0.0498,0.23193 0.14954,0.29907 0.0997,0.0671 0.21667,0.13427 0.35095,0.20142 0.0651,-10e-6 0.11444,0.0163 0.14801,0.0488 0.0336,0.0326 0.0839,0.0488 0.15106,0.0488 h 0.0504 0.14801 c 0.13427,0 0.2182,-0.0498 0.25177,-0.14953 0.0336,-0.0997 0.0829,-0.21566 0.14801,-0.3479 l 0.90027,-1.8501 0.45013,-0.92507 4.2023,1.4233 -1.7502,3.7506 c -0.40081,0.79955 -0.90129,1.383 -1.5015,1.7502 -0.60018,0.36722 -1.2665,0.55084 -1.9989,0.55084 -0.13428,0 -0.26805,-0.0168 -0.4013,-0.0503 -0.13327,-0.0336 -0.26602,-0.0504 -0.39826,-0.0504 -0.13428,-0.0671 -0.26805,-0.11749 -0.4013,-0.15106 -0.13327,-0.0336 -0.26602,-0.0829 -0.39826,-0.14801 -0.66732,-0.26856 -1.2009,-0.70242 -1.6006,-1.3016 -0.39978,-0.59917 -0.59967,-1.2996 -0.59967,-2.1011 0,-0.26652 0.0331,-0.54983 0.0992,-0.84991 0.0661,-0.30009 0.16632,-0.61595 0.30059,-0.94757 l 1.3977,-2.8015 z" />
    </g>
    <ellipse
       id="path3848"
       style="fill:#000000;stroke:#000000;stroke-width:5;stroke-linecap:round;stroke-opacity:0.85027"
       transform="matrix(0.95185,0,0,0.92263,164.22,356.29)"
       cx="714.10712"
       cy="370.40009"
       rx="365.24509"
       ry="376.80957" />
    <ellipse
       id="path3180"
       style="fill:#000000;stroke:#ffffff;stroke-width:3.293;stroke-linecap:round;stroke-opacity:0.12308"
       transform="matrix(0.9404,0,0,0.91154,172.39,360.4)"
       cx="714.10712"
       cy="370.40009"
       rx="365.24509"
       ry="376.80957" />
    <ellipse
       id="path3952"
       style="fill:#000000;stroke:#ffffff;stroke-width:3.293;stroke-linecap:round;stroke-opacity:0.12308"
       transform="matrix(0.92677,0,0,0.89833,182.12,365.29)"
       cx="714.10712"
       cy="370.40009"
       rx="365.24509"
       ry="376.80957" />
    <ellipse
       id="path3954"
       style="fill:#000000;stroke:#ffffff;stroke-width:3.293;stroke-linecap:round;stroke-opacity:0.12308"
       transform="matrix(0.91314,0,0,0.88511,191.86,370.18)"
       cx="714.10712"
       cy="370.40009"
       rx="365.24509"
       ry="376.80957" />
    <ellipse
       id="path3956"
       style="fill:#000000;stroke:#ffffff;stroke-width:3.293;stroke-linecap:round;stroke-opacity:0.12308"
       transform="matrix(0.89951,0,0,0.8719,201.59,375.08)"
       cx="714.10712"
       cy="370.40009"
       rx="365.24509"
       ry="376.80957" />
    <ellipse
       id="path3958"
       style="fill:#000000;stroke:#ffffff;stroke-width:3.293;stroke-linecap:round;stroke-opacity:0.12308"
       transform="matrix(0.88588,0,0,0.85869,211.32,379.97)"
       cx="714.10712"
       cy="370.40009"
       rx="365.24509"
       ry="376.80957" />
    <ellipse
       id="path3960-2"
       style="fill:#000000;stroke:#ffffff;stroke-width:3.293;stroke-linecap:round;stroke-opacity:0.12308"
       transform="matrix(0.87225,0,0,0.84548,221.05,384.86)"
       cx="714.10712"
       cy="370.40009"
       rx="365.24509"
       ry="376.80957" />
    <ellipse
       id="path3962-7"
       style="fill:#000000;stroke:#ffffff;stroke-width:3.293;stroke-linecap:round;stroke-opacity:0.12308"
       transform="matrix(0.85862,0,0,0.83227,230.79,389.76)"
       cx="714.10712"
       cy="370.40009"
       rx="365.24509"
       ry="376.80957" />
    <ellipse
       id="path3964-6"
       style="fill:#000000;stroke:#ffffff;stroke-width:3.293;stroke-linecap:round;stroke-opacity:0.12308"
       transform="matrix(0.84499,0,0,0.81906,240.52,394.65)"
       cx="714.10712"
       cy="370.40009"
       rx="365.24509"
       ry="376.80957" />
    <ellipse
       id="path3966-1"
       style="fill:#000000;stroke:#ffffff;stroke-width:3.293;stroke-linecap:round;stroke-opacity:0.12308"
       transform="matrix(0.83137,0,0,0.80585,250.25,399.54)"
       cx="714.10712"
       cy="370.40009"
       rx="365.24509"
       ry="376.80957" />
    <ellipse
       id="path3971-4"
       style="fill:#000000;stroke:#ffffff;stroke-width:3.293;stroke-linecap:round;stroke-opacity:0.12308"
       transform="matrix(0.80411,0,0,0.77943,269.72,409.33)"
       cx="714.10712"
       cy="370.40009"
       rx="365.24509"
       ry="376.80957" />
    <ellipse
       id="path3973-2"
       style="fill:#000000;stroke:#ffffff;stroke-width:3.293;stroke-linecap:round;stroke-opacity:0.12308"
       transform="matrix(0.79048,0,0,0.76622,279.45,414.22)"
       cx="714.10712"
       cy="370.40009"
       rx="365.24509"
       ry="376.80957" />
    <ellipse
       id="path3975-3"
       style="fill:#000000;stroke:#ffffff;stroke-width:3.293;stroke-linecap:round;stroke-opacity:0.12308"
       transform="matrix(0.77685,0,0,0.75301,289.18,419.12)"
       cx="714.10712"
       cy="370.40009"
       rx="365.24509"
       ry="376.80957" />
    <ellipse
       id="path3977-2"
       style="fill:#000000;stroke:#ffffff;stroke-width:3.293;stroke-linecap:round;stroke-opacity:0.12308"
       transform="matrix(0.76322,0,0,0.7398,298.91,424.01)"
       cx="714.10712"
       cy="370.40009"
       rx="365.24509"
       ry="376.80957" />
    <ellipse
       id="path3979"
       style="fill:#000000;stroke:#ffffff;stroke-width:3.293;stroke-linecap:round;stroke-opacity:0.12308"
       transform="matrix(0.74959,0,0,0.72659,308.65,428.9)"
       cx="714.10712"
       cy="370.40009"
       rx="365.24509"
       ry="376.80957" />
    <ellipse
       id="path3981"
       style="fill:#000000;stroke:#ffffff;stroke-width:3.293;stroke-linecap:round;stroke-opacity:0.12308"
       transform="matrix(0.73596,0,0,0.71338,318.38,433.8)"
       cx="714.10712"
       cy="370.40009"
       rx="365.24509"
       ry="376.80957" />
    <ellipse
       id="path3983"
       style="fill:#000000;stroke:#ffffff;stroke-width:3.293;stroke-linecap:round;stroke-opacity:0.12308"
       transform="matrix(0.72233,0,0,0.70017,328.11,438.69)"
       cx="714.10712"
       cy="370.40009"
       rx="365.24509"
       ry="376.80957" />
    <ellipse
       id="path3987"
       style="fill:#000000;stroke:#ffffff;stroke-width:3.293;stroke-linecap:round;stroke-opacity:0.12308"
       transform="matrix(0.69508,0,0,0.67374,347.58,448.48)"
       cx="714.10712"
       cy="370.40009"
       rx="365.24509"
       ry="376.80957" />
    <ellipse
       id="path3989"
       style="fill:#000000;stroke:#ffffff;stroke-width:3.293;stroke-linecap:round;stroke-opacity:0.12308"
       transform="matrix(0.68145,0,0,0.66053,357.31,453.37)"
       cx="714.10712"
       cy="370.40009"
       rx="365.24509"
       ry="376.80957" />
    <ellipse
       id="path3991"
       style="fill:#000000;stroke:#ffffff;stroke-width:3.293;stroke-linecap:round;stroke-opacity:0.12308"
       transform="matrix(0.66782,0,0,0.64732,367.04,458.26)"
       cx="714.10712"
       cy="370.40009"
       rx="365.24509"
       ry="376.80957" />
    <ellipse
       id="path3993"
       style="fill:#000000;stroke:#ffffff;stroke-width:3.293;stroke-linecap:round;stroke-opacity:0.12308"
       transform="matrix(0.65419,0,0,0.63411,376.77,463.16)"
       cx="714.10712"
       cy="370.40009"
       rx="365.24509"
       ry="376.80957" />
    <ellipse
       id="path3995"
       style="fill:#000000;stroke:#ffffff;stroke-width:3.293;stroke-linecap:round;stroke-opacity:0.12308"
       transform="matrix(0.64056,0,0,0.6209,386.51,468.05)"
       cx="714.10712"
       cy="370.40009"
       rx="365.24509"
       ry="376.80957" />
    <ellipse
       id="path3997"
       style="fill:#000000;stroke:#ffffff;stroke-width:3.293;stroke-linecap:round;stroke-opacity:0.12308"
       transform="matrix(0.62693,0,0,0.60769,396.24,472.94)"
       cx="714.10712"
       cy="370.40009"
       rx="365.24509"
       ry="376.80957" />
    <ellipse
       id="path3999"
       style="fill:#000000;stroke:#ffffff;stroke-width:3.293;stroke-linecap:round;stroke-opacity:0.12308"
       transform="matrix(0.6133,0,0,0.59448,405.97,477.84)"
       cx="714.10712"
       cy="370.40009"
       rx="365.24509"
       ry="376.80957" />
    <ellipse
       id="path4001"
       style="fill:#000000;stroke:#ffffff;stroke-width:3.293;stroke-linecap:round;stroke-opacity:0.12308"
       transform="matrix(0.59967,0,0,0.58127,415.7,482.73)"
       cx="714.10712"
       cy="370.40009"
       rx="365.24509"
       ry="376.80957" />
    <ellipse
       id="path4003"
       style="fill:#000000;stroke:#ffffff;stroke-width:3.293;stroke-linecap:round;stroke-opacity:0.12308"
       transform="matrix(0.58604,0,0,0.56806,425.44,487.62)"
       cx="714.10712"
       cy="370.40009"
       rx="365.24509"
       ry="376.80957" />
    <ellipse
       id="path4007"
       style="fill:#000000;stroke:#ffffff;stroke-width:3.293;stroke-linecap:round;stroke-opacity:0.12308"
       transform="matrix(0.55879,0,0,0.54164,444.9,497.41)"
       cx="714.10712"
       cy="370.40009"
       rx="365.24509"
       ry="376.80957" />
    <ellipse
       id="path4009"
       style="fill:#000000;stroke:#ffffff;stroke-width:3.293;stroke-linecap:round;stroke-opacity:0.12308"
       transform="matrix(0.54516,0,0,0.52843,454.63,502.3)"
       cx="714.10712"
       cy="370.40009"
       rx="365.24509"
       ry="376.80957" />
    <ellipse
       id="path4011"
       style="fill:#000000;stroke:#ffffff;stroke-width:3.293;stroke-linecap:round;stroke-opacity:0.12308"
       transform="matrix(0.53153,0,0,0.51522,464.37,507.2)"
       cx="714.10712"
       cy="370.40009"
       rx="365.24509"
       ry="376.80957" />
    <ellipse
       id="path4013"
       style="fill:#000000;stroke:#ffffff;stroke-width:3.293;stroke-linecap:round;stroke-opacity:0.12308"
       transform="matrix(0.5179,0,0,0.50201,474.1,512.09)"
       cx="714.10712"
       cy="370.40009"
       rx="365.24509"
       ry="376.80957" />
    <ellipse
       id="path4017"
       style="fill:#000000;stroke:#ffffff;stroke-width:3.293;stroke-linecap:round;stroke-opacity:0.12308"
       transform="matrix(0.50427,0,0,0.48879,483.83,516.98)"
       cx="714.10712"
       cy="370.40009"
       rx="365.24509"
       ry="376.80957" />
    <ellipse
       id="path4019"
       style="fill:#000000;stroke:#ffffff;stroke-width:3.293;stroke-linecap:round;stroke-opacity:0.12308"
       transform="matrix(0.49064,0,0,0.47558,493.56,521.88)"
       cx="714.10712"
       cy="370.40009"
       rx="365.24509"
       ry="376.80957" />
    <ellipse
       id="path4021"
       style="fill:#000000;stroke:#ffffff;stroke-width:3.293;stroke-linecap:round;stroke-opacity:0.12308"
       transform="matrix(0.47701,0,0,0.46237,503.3,526.77)"
       cx="714.10712"
       cy="370.40009"
       rx="365.24509"
       ry="376.80957" />
    <ellipse
       id="path4023"
       style="fill:#000000;stroke:#ffffff;stroke-width:3.293;stroke-linecap:round;stroke-opacity:0.12308"
       transform="matrix(0.46338,0,0,0.44916,513.03,531.66)"
       cx="714.10712"
       cy="370.40009"
       rx="365.24509"
       ry="376.80957" />
    <ellipse
       id="path4027"
       style="fill:#000000;stroke:#ffffff;stroke-width:3.293;stroke-linecap:round;stroke-opacity:0.12308"
       transform="matrix(0.44976,0,0,0.43595,522.76,536.55)"
       cx="714.10712"
       cy="370.40009"
       rx="365.24509"
       ry="376.80957" />
    <ellipse
       id="path4029"
       style="fill:#000000;stroke:#ffffff;stroke-width:3.293;stroke-linecap:round;stroke-opacity:0.12308"
       transform="matrix(0.43613,0,0,0.42274,532.49,541.45)"
       cx="714.10712"
       cy="370.40009"
       rx="365.24509"
       ry="376.80957" />
    <ellipse
       id="path4031"
       style="fill:#000000;stroke:#ffffff;stroke-width:3.293;stroke-linecap:round;stroke-opacity:0.12308"
       transform="matrix(0.4225,0,0,0.40953,542.23,546.34)"
       cx="714.10712"
       cy="370.40009"
       rx="365.24509"
       ry="376.80957" />
    <ellipse
       id="path4035"
       style="fill:#000000;stroke:#ffffff;stroke-width:3.293;stroke-linecap:round;stroke-opacity:0.12308"
       transform="matrix(0.39524,0,0,0.38311,561.69,556.13)"
       cx="714.10712"
       cy="370.40009"
       rx="365.24509"
       ry="376.80957" />
    <ellipse
       id="path4037"
       style="fill:#000000;stroke:#ffffff;stroke-width:3.293;stroke-linecap:round;stroke-opacity:0.12308"
       transform="matrix(0.38161,0,0,0.3699,571.43,561.02)"
       cx="714.10712"
       cy="370.40009"
       rx="365.24509"
       ry="376.80957" />
    <ellipse
       id="path4039"
       style="fill:#000000;stroke:#ffffff;stroke-width:3.293;stroke-linecap:round;stroke-opacity:0.12308"
       transform="matrix(0.36798,0,0,0.35669,581.16,565.91)"
       cx="714.10712"
       cy="370.40009"
       rx="365.24509"
       ry="376.80957" />
    <ellipse
       id="path4041"
       style="fill:#000000;stroke:#ffffff;stroke-width:3.293;stroke-linecap:round;stroke-opacity:0.12308"
       transform="matrix(0.35435,0,0,0.34348,590.89,570.81)"
       cx="714.10712"
       cy="370.40009"
       rx="365.24509"
       ry="376.80957" />
    <ellipse
       id="path4043"
       style="fill:#000000;stroke:#ffffff;stroke-width:3.293;stroke-linecap:round;stroke-opacity:0.12308"
       transform="matrix(0.34072,0,0,0.33027,600.62,575.7)"
       cx="714.10712"
       cy="370.40009"
       rx="365.24509"
       ry="376.80957" />
    <ellipse
       id="path4045"
       style="fill:#000000"
       transform="matrix(0.27258,0,0,0.26421,649.29,600.17)"
       cx="714.10712"
       cy="370.40009"
       rx="365.24509"
       ry="376.80957" />
    <text
       id="text4347"
       xml:space="preserve"
       style="font-size:24.058px;line-height:0%;font-family:'Century Gothic';letter-spacing:0px;word-spacing:0px;fill:#000000"
       transform="translate(0.91384,3.9272)">       <textPath
   id="textPath4353"
   style="font-size:12px"
   xlink:href="#path4351">Casablanca Records                                                 All rights reserved</textPath>    </text>
    <path
       id="path4047"
       sodipodi:nodetypes="sssssssss"
       style="color:#000000;text-indent:0;text-transform:none;fill-opacity:0"
       inkscape:connector-curvature="0"
       d="m 750.86,693.62 c -1.211,25.625 8.0533,49.326 24.083,66.946 16.0297,17.62 38.823,29.183 64.578,30.4 25.755,1.2172 49.583,-8.1438 67.202,-24.173 17.62,-16.03 29.078,-38.751 30.288,-64.376 1.2109,-25.625 -8.0534,-49.326 -24.083,-66.946 -16.0296,-17.62 -38.87,-29.15 -64.625,-30.367 -25.755,-1.217 -49.536,8.1107 -67.156,24.14 -17.62,16.03 -29.077,38.751 -30.288,64.376 z" />
    <path
       id="path4085"
       style="opacity:0.76724;fill:#5d5d5d;filter:url(#filter4177-4)"
       d="m 1050.6,517.07 c -18.482,45.081 -45.227,85.679 -78.275,119.77 L 716.995,386.93 377.565,223.73 c 18.482,-45.081 45.227,-85.679 78.275,-119.77 l 257.48,249.91 z"
       sodipodi:nodetypes="ccccccc"
       inkscape:connector-curvature="0"
       transform="matrix(0.95185,0,0,0.92263,164.22,356.29)" />
    <ellipse
       id="path3773"
       style="fill:#222f5e"
       transform="matrix(-0.16038,-0.17816,0.1727,-0.15546,894.5,882.84)"
       cx="714.10712"
       cy="370.40009"
       rx="365.24509"
       ry="376.80957" />
    <ellipse
       id="path3619"
       style="fill:#000000"
       transform="matrix(0.45249,0,0,0.73214,670.79,438.85)"
       cx="382.65247"
       cy="354"
       rx="22.652475"
       ry="14" />
  </g>
  <metadata
     id="metadata191">
    <rdf:RDF>
      <cc:Work>
        <dc:format>image/svg+xml</dc:format>
        <dc:type
           rdf:resource="http://purl.org/dc/dcmitype/StillImage" />
        <cc:license
           rdf:resource="http://creativecommons.org/publicdomain/zero/1.0/" />
        <dc:publisher>
          <cc:Agent
             rdf:about="http://openclipart.org/">
            <dc:title>Openclipart</dc:title>
          </cc:Agent>
        </dc:publisher>
        <dc:title>Record</dc:title>
        <dc:date>2012-03-08T11:57:50</dc:date>
        <dc:description />
        <dc:source>https://openclipart.org/detail/168769/record-by-a-doi</dc:source>
        <dc:creator>
          <cc:Agent>
            <dc:title>a-doi</dc:title>
          </cc:Agent>
        </dc:creator>
        <dc:subject>
          <rdf:Bag>
            <rdf:li>cd</rdf:li>
            <rdf:li>disc</rdf:li>
            <rdf:li>disc jockey</rdf:li>
            <rdf:li>dj</rdf:li>
            <rdf:li>record</rdf:li>
            <rdf:li>retro</rdf:li>
            <rdf:li>vinyl</rdf:li>
            <rdf:li>vinyl disc</rdf:li>
          </rdf:Bag>
        </dc:subject>
      </cc:Work>
      <cc:License
         rdf:about="http://creativecommons.org/publicdomain/zero/1.0/">
        <cc:permits
           rdf:resource="http://creativecommons.org/ns#Reproduction" />
        <cc:permits
           rdf:resource="http://creativecommons.org/ns#Distribution" />
        <cc:permits
           rdf:resource="http://creativecommons.org/ns#DerivativeWorks" />
      </cc:License>
    </rdf:RDF>
  </metadata>
</svg>
